<?xml version="1.0" encoding="UTF-8" standalone="no"?>
<!DOCTYPE svg PUBLIC "-//W3C//DTD SVG 1.1//EN" "http://www.w3.org/Graphics/SVG/1.1/DTD/svg11.dtd">
<!-- Created with Vectornator (http://vectornator.io/) -->
<svg height="100%" stroke-miterlimit="10" style="fill-rule:nonzero;clip-rule:evenodd;stroke-linecap:round;stroke-linejoin:round;" version="1.1" viewBox="0 0 1024 1024" width="100%" xml:space="preserve" xmlns="http://www.w3.org/2000/svg" xmlns:vectornator="http://vectornator.io" xmlns:xlink="http://www.w3.org/1999/xlink">
<defs/>
<g id="Camada-1" vectornator:layerName="Camada 1">
<path d="M491.682 90.5057C482.487 93.5513 473.562 98.1198 464.908 104.211C456.253 110.302 443.272 121.47 425.963 137.713C408.655 153.956 388.642 175.529 365.924 202.432C343.206 229.335 325.627 251.67 313.187 269.436C300.746 287.202 289.658 304.715 279.922 321.973C270.185 339.232 262.072 355.983 255.581 372.226C249.09 388.469 244.222 404.205 240.977 419.433C237.732 434.661 236.109 449.382 236.109 463.595C236.109 477.807 236.92 489.99 238.543 500.142C240.166 510.294 243.141 521.461 247.468 533.644C251.795 545.826 256.933 557.247 262.883 567.907C268.833 578.567 283.437 598.363 306.696 627.297C329.954 656.23 348.886 677.803 363.49 692.016C378.094 706.229 394.862 720.696 413.793 735.416C432.724 750.137 443.272 759.02 445.436 762.066C446.517 763.588 447.599 765.111 448.681 766.634C441.108 770.949 433.536 775.263 425.963 779.578C410.818 788.207 395.403 796.075 379.717 803.181C364.031 810.288 344.288 817.902 320.489 826.024C296.689 834.145 275.865 840.237 258.015 844.297C240.166 848.358 225.562 851.15 214.203 852.673C202.844 854.196 187.699 854.703 168.768 854.196C149.836 853.688 135.232 851.658 124.955 848.104C114.678 844.551 106.835 840.237 101.426 835.161C96.0171 830.084 92.2308 825.008 90.0672 819.932C87.9036 814.856 86.8218 808.258 86.8218 800.136C86.8218 792.014 88.4445 783.131 91.6899 773.487C94.9353 763.842 99.2624 753.944 104.671 743.792C110.08 733.64 120.628 717.396 136.314 695.062C152 672.727 167.686 652.423 183.372 634.149C199.058 615.876 211.769 602.17 221.505 593.033C231.241 583.897 234.216 575.775 230.43 568.669C226.643 561.562 222.857 551.156 219.071 537.451C215.285 523.746 212.85 516.639 211.769 516.132C210.687 515.624 201.762 523.238 184.994 538.974C168.227 554.709 152.541 570.699 137.936 586.942C123.332 603.186 108.187 621.459 92.5012 641.763C76.8153 662.068 63.8338 680.849 53.5568 698.107C43.2798 715.366 35.9777 729.071 31.6505 739.223C27.3233 749.375 23.8075 760.289 21.103 771.964C18.3986 783.639 17.3168 795.567 17.8577 807.75C18.3986 819.932 20.5621 830.846 24.3484 840.49C28.1347 850.135 34.6254 860.287 43.8207 870.947C53.0159 881.606 64.1042 890.489 77.0857 897.596C90.0672 904.702 103.59 909.778 117.653 912.824C131.716 915.87 150.107 917.392 172.824 917.392C195.542 917.392 220.693 914.854 248.279 909.778C275.865 904.702 299.394 899.119 318.866 893.027C338.338 886.936 363.49 877.292 394.321 864.094C425.152 850.896 452.467 837.699 476.267 824.501C500.066 811.303 520.35 809.78 537.117 819.932C553.885 830.084 576.603 841.759 605.27 854.957C633.938 868.155 660.171 878.814 683.97 886.936C707.77 895.058 728.324 901.149 745.633 905.21C762.941 909.271 779.438 912.316 795.124 914.347C810.81 916.377 829.471 917.392 851.107 917.392C872.743 917.392 888.158 916.631 897.354 915.108C906.549 913.585 918.178 910.032 932.241 904.448C946.305 898.865 958.475 891.758 968.752 883.129C979.029 874.5 987.683 863.84 994.715 851.15C1001.75 838.46 1005.8 824.755 1006.89 810.034C1007.97 795.314 1006.89 781.355 1003.64 768.157C1000.39 754.959 994.174 739.223 984.979 720.95C975.784 702.676 964.154 683.641 950.091 663.844C936.028 644.048 920.071 623.997 902.222 603.693C884.372 583.389 865.17 563.592 844.616 544.304C824.062 525.015 813.244 515.37 812.163 515.37C811.081 515.37 809.458 519.939 807.295 529.075C805.131 538.212 801.345 548.872 795.936 561.054C790.527 573.237 794.584 585.927 808.106 599.125C821.628 612.322 834.61 626.282 847.05 641.002C859.491 655.723 874.095 675.012 890.863 698.869C907.631 722.726 919.801 743.538 927.373 761.304C934.946 779.07 938.732 792.014 938.732 800.136C938.732 808.258 937.11 815.364 933.864 821.455C930.619 827.546 926.292 832.876 920.883 837.445C915.474 842.013 907.901 845.82 898.165 848.866C888.429 851.911 874.636 853.688 856.787 854.196C838.937 854.703 824.062 854.196 812.163 852.673C800.263 851.15 785.118 848.358 766.727 844.297C748.337 840.237 729.135 834.907 709.122 828.308C689.109 821.709 668.014 813.587 645.837 803.943C623.661 794.298 605.541 785.415 591.477 777.294C584.446 773.233 577.414 769.172 570.382 765.111C583.093 754.705 595.804 744.299 608.516 733.894C633.938 713.082 652.328 697.092 663.687 685.925C675.046 674.758 687.486 661.56 701.009 646.332C714.531 631.104 726.431 616.383 736.708 602.17C746.985 587.957 754.828 576.029 760.237 566.384C765.646 556.74 770.784 544.811 775.652 530.598C780.52 516.385 783.766 502.426 785.388 488.721C787.011 475.016 787.552 462.579 787.011 451.412C786.47 440.245 783.225 424.001 777.275 402.682C771.325 381.363 763.482 361.059 753.746 341.77C744.01 322.481 726.701 295.578 701.82 261.061C676.939 226.544 657.737 201.671 644.215 186.443C630.692 171.215 613.113 153.702 591.477 133.906C569.842 114.109 554.426 101.673 545.231 96.5969C536.036 91.5209 527.111 88.4753 518.456 87.4601C509.802 86.4449 500.877 87.4601 491.682 90.5057ZM514.4 157.509C520.35 158.525 529.004 164.108 540.363 174.26C551.722 184.412 572.005 206.747 601.213 241.264C630.422 275.781 653.139 306.237 669.366 332.633C685.593 359.028 695.87 377.048 700.197 386.693C704.524 396.337 708.581 408.773 712.367 424.001C716.154 439.23 718.047 453.189 718.047 465.879C718.047 478.569 717.236 488.975 715.613 497.096C713.99 505.218 711.015 514.355 706.688 524.507C702.361 534.659 697.222 544.304 691.273 553.44C685.323 562.577 674.505 576.283 658.819 594.556C643.133 612.83 626.365 630.342 608.516 647.093C590.666 663.844 569.842 681.357 546.042 699.63C522.243 717.904 499.525 718.919 477.889 702.676C456.253 686.433 431.643 664.606 404.057 637.195C376.471 609.784 357.81 589.734 348.074 577.044C338.338 564.354 330.766 553.187 325.357 543.542C319.948 533.898 315.08 520.954 310.753 504.71C306.425 488.467 304.532 473.493 305.073 459.787C305.614 446.082 306.966 434.915 309.13 426.286C311.293 417.656 318.325 400.652 330.225 375.271C342.125 349.891 355.647 326.288 370.792 304.461C385.937 282.634 400 263.852 412.982 248.117C425.963 232.381 442.461 214.361 462.474 194.057C482.487 173.753 494.657 162.332 498.984 159.794C503.311 157.256 508.45 156.494 514.4 157.509ZM465.719 299.892C437.052 333.902 408.384 370.195 379.717 408.773C351.049 447.351 336.175 467.655 335.093 469.686C334.011 471.716 334.011 476.285 335.093 483.391C336.175 490.498 338.879 500.903 343.206 514.609C347.533 528.314 350.508 536.689 352.131 539.735C352.942 541.258 353.754 542.781 354.565 544.304C355.647 543.796 356.729 543.288 357.81 542.781C359.974 541.766 377.283 519.431 409.736 475.777C442.19 432.123 466.801 400.144 483.569 379.84C500.336 359.536 509.261 349.384 510.343 349.384C511.425 349.384 523.865 363.85 547.665 392.784C571.464 421.717 597.157 454.458 624.742 491.005C638.535 509.279 652.328 527.553 666.121 545.826C669.096 538.974 672.071 532.121 675.046 525.268C680.996 511.563 684.782 499.127 686.404 487.959C688.027 476.792 670.178 446.59 632.856 397.352C595.534 348.115 566.596 311.313 546.042 286.948C525.488 262.583 514.129 250.147 511.966 249.639C509.802 249.132 494.387 265.883 465.719 299.892Z" fill="#000000" fill-rule="nonzero" opacity="1" stroke="none" vectornator:layerName="Curva 1"/>
</g>
</svg>
