<svg width="619" height="750" viewBox="0 0 619 750" fill="none" xmlns="http://www.w3.org/2000/svg">
<path d="M603.37 366.774C583.538 345.104 545.728 329.573 498.022 311.62C457.144 296.257 428.918 286.809 419.301 283.397C380.691 269.678 351.782 284.472 340.899 296.301C330.017 308.13 261.83 388.7 251.183 407.806C237.353 432.756 236.945 453.71 269.52 466.614C319.395 486.372 514.508 362.947 581.52 371.811C608.815 375.444 614.682 388.62 617.907 402.999C619.14 393.111 615.562 380.129 603.37 366.774Z" fill="url(#paint0_linear_533_81)"/>
<path d="M260.725 462.536C237.092 449.466 238.711 430.137 251.187 407.807C261.836 388.702 330.61 309.038 340.906 296.303C395.51 228.465 445.465 157.014 490.43 82.4368C531.253 23.6241 474.631 -35.0767 385.398 25.5933C312.217 75.533 47.075 252.989 18.6877 278.922C-5.73251 301.212 -11.3668 354.785 37.9931 374.341L260.725 462.536Z" fill="url(#paint1_linear_533_81)"/>
<path d="M261.403 462.889C271.163 468.14 278.255 470.158 294.513 467.876C366.164 457.664 522.854 364.285 581.516 371.818C609.298 375.403 614.996 389.815 617.528 401.156C625.523 437.359 595.055 466.254 567.158 485.667C390.281 608.979 236.875 703.228 169.027 740.007C117.399 768.017 54.1223 728.901 110.397 659.87C127.945 638.288 261.403 462.889 261.403 462.889Z" fill="url(#paint2_linear_533_81)"/>
<defs>
<linearGradient id="paint0_linear_533_81" x1="509.804" y1="328.6" x2="247.279" y2="504.333" gradientUnits="userSpaceOnUse">
<stop stop-color="#696CFF"/>
<stop offset="1" stop-color="#D4D5FF"/>
</linearGradient>
<linearGradient id="paint1_linear_533_81" x1="45.076" y1="492.542" x2="326.626" y2="128.324" gradientUnits="userSpaceOnUse">
<stop stop-color="#696CFF"/>
<stop offset="0.698154" stop-color="#8789FF"/>
<stop offset="1" stop-color="#AAABFE"/>
</linearGradient>
<linearGradient id="paint2_linear_533_81" x1="313.585" y1="484.588" x2="379.938" y2="608.986" gradientUnits="userSpaceOnUse">
<stop stop-color="#696CFF"/>
<stop offset="0.67" stop-color="#8789FF"/>
<stop offset="1" stop-color="#BCBDFF"/>
</linearGradient>
</defs>
</svg>
